<?xml version="1.0" encoding="UTF-8"?>
<svg xmlns="http://www.w3.org/2000/svg" xmlns:xlink="http://www.w3.org/1999/xlink" width="164px" height="43px" viewBox="0 0 164 43" version="1.1">
  <title>Atoms/Softline Solutions logo</title>
  <g id="About-Us" stroke="none" stroke-width="1" fill="none" fill-rule="evenodd">
    <g id="About-Us-V1" transform="translate(-215.000000, -36.000000)">
      <g id="Atoms/Softline-Solutions-logo" transform="translate(215.000000, 36.000000)">
        <path d="M126.959959,33.5879111 C128.991174,33.5879111 130.638148,35.2445426 130.638148,37.2879479 C130.638148,39.3318058 128.991174,40.9884374 126.959959,40.9884374 C124.928743,40.9884374 123.28177,39.3318058 123.28177,37.2879479 C123.28177,35.2445426 124.928743,33.5879111 126.959959,33.5879111 Z M83.6605619,33.6890968 L83.6362656,38.14616 C83.7199528,39.6982337 84.519256,40.52836 86.0188774,40.0433653 C87.0541389,39.3224775 86.9351632,38.5696272 86.9132078,37.2008019 L86.9108664,37.0010021 L86.9362875,33.6983758 L87.7099446,33.6963389 L87.6784494,38.3484863 C87.4696812,41.6864179 83.1341421,42.0127653 82.8713822,38.3143126 C82.8271089,37.6925779 82.8486336,37.0045055 82.8534857,36.3484721 L82.85271,35.8639916 L82.8961284,33.6933968 L83.6605619,33.6890968 Z M39.7432291,33.6604679 C40.3481469,33.7901619 40.8717371,34.3833467 41.0103766,35.1182007 L41.0340823,35.2777205 L40.3393882,35.2736468 C39.9627956,33.7926363 38.0442881,33.9544521 38.0276406,35.4311626 C38.0070321,36.2988816 38.605517,36.5191108 39.3010697,36.7241069 L39.5832304,36.8067916 C40.105479,36.9623858 40.6424974,37.1551232 40.9884143,37.6343468 C41.9004252,38.8978679 41.1589383,40.6187732 39.8532373,40.8726995 C38.2042819,41.1934586 37.494625,40.3700842 36.9916895,39.1099743 L36.9322826,38.95671 L37.7509328,38.9517311 C39.2815995,41.8890837 41.5551029,39.1619784 40.3958546,38.0224784 C39.1196241,37.0671995 37.2366612,37.4648363 37.2884033,35.5078837 C37.3257476,34.08911 38.352716,33.3626363 39.7432291,33.6604679 Z M159.891811,33.6604679 C160.496729,33.7901619 161.020319,34.3833467 161.159142,35.1182007 L161.182889,35.2777205 L160.48797,35.2736468 C160.111378,33.7926363 158.19287,33.9544521 158.176223,35.4311626 C158.155735,36.2988816 158.754276,36.5191108 159.449854,36.7241069 L159.732024,36.8067916 C160.254286,36.9623858 160.791304,37.1551232 161.137221,37.6343468 C162.049007,38.8978679 161.30752,40.6187732 160.001819,40.8726995 C158.35308,41.1934586 157.643016,40.3700842 157.140249,39.1099743 L157.080865,38.95671 L157.899515,38.9517311 C159.430182,41.8890837 161.703685,39.1619784 160.544437,38.0224784 C159.267981,37.0671995 157.385243,37.4648363 157.436985,35.5078837 C157.474555,34.08911 158.501298,33.3626363 159.891811,33.6604679 Z M58.6661295,36.1674358 C59.3138058,38.3823884 57.8393805,40.3153516 56.1665355,40.7654937 C51.1857948,42.1061884 49.6040609,34.8996147 54.1733394,33.7196042 C56.2643956,33.1796147 58.1552324,34.4209568 58.6661295,36.1674358 Z M112.477679,33.6984211 L112.477679,40.7592474 L111.735292,40.7592474 L111.735292,33.6984211 L112.477679,33.6984211 Z M69.3594019,33.6891647 L70.1492565,33.6909753 L70.1499314,40.1151753 L73.0096955,40.10997 L73.0067709,40.7456911 L69.3551276,40.7307542 L69.3594019,33.6891647 Z M145.984926,33.6775774 L146.74396,33.6893458 L146.754534,40.73003 L145.985151,40.7395353 L144.106463,38.0183142 L141.936218,34.9630511 L141.936668,40.7422511 L141.108345,40.7422511 L141.112169,33.6891195 L141.940043,33.6907037 L146.001124,39.6079563 L145.984926,33.6775774 Z M97.9119369,33.6918126 L101.683262,33.6929442 L101.680337,34.3918074 L100.175092,34.3985968 L100.175767,40.7413232 L99.4441783,40.7417758 L99.4444033,34.3981442 L97.9117119,34.39656 L97.9119369,33.6918126 Z M54.4102957,34.4076042 C50.5978019,35.4819253 52.0699775,41.1366516 55.9414123,40.0903937 C57.2545372,39.7355305 58.4041119,38.1807411 57.944282,36.4403726 C57.5877114,35.0913042 56.015876,33.9551989 54.4102957,34.4076042 Z M126.959959,34.3687005 C125.357303,34.3687005 124.057901,35.6756742 124.057901,37.2879479 C124.057901,38.9004479 125.357303,40.2076479 126.959959,40.2076479 C128.56284,40.2076479 129.862016,38.9004479 129.862016,37.2879479 C129.862016,35.6756742 128.56284,34.3687005 126.959959,34.3687005 Z M16.0729449,30.9950563 C13.3191396,32.10423 11.5430354,28.1188089 14.4707391,27.0023932 C17.0967638,26.0007195 18.4650052,30.03163 16.0729449,30.9950563 Z M10.3477701,30.8821021 C7.48193196,32.1306863 5.51438189,28.0556442 8.33702661,26.5316337 C11.3700143,24.8940126 13.0536576,29.7029968 10.3477701,30.8821021 Z M52.117298,13.6661914 L52.1428889,13.9529342 L47.0280686,13.9690026 C46.8096269,13.7483447 46.9410069,13.8787026 46.7227901,13.5487342 C46.6951193,13.5070921 46.6611495,13.4475711 46.6332538,13.4043447 C46.605583,13.3617974 46.5756626,13.3027289 46.5482167,13.2601816 C46.356321,12.9650658 46.2616104,12.7964605 46.0555418,12.6231026 C45.6177586,12.2546605 45.0726667,12.10665 44.4006941,12.1924237 C43.0936433,12.3589921 42.4927599,13.3771868 42.7582195,14.8204026 C43.0455007,16.2305763 48.881786,16.6476763 51.2176049,18.9778237 C53.6607325,21.4150184 53.0045075,25.8053184 50.8716077,28.1872921 C48.8631139,30.4305342 45.4107901,31.8504395 41.3938025,30.4438868 C38.2328672,29.3371638 37.1974211,27.2023235 36.4138772,23.499746 L36.3453471,23.1689658 L41.9046996,23.1399974 C42.8644033,27.7561605 48.2073388,25.97415 47.1574239,22.8485026 C46.3776927,20.5274079 37.4440796,21.0096868 37.1849191,14.5710026 C36.811647,5.30754658 51.1370462,4.30836594 52.117298,13.6661914 Z M77.3681811,16.8739921 C78.7355226,24.03485 73.6708697,29.5716658 67.8084883,30.7448868 C60.6188093,32.1838026 54.815144,27.0242553 53.7013388,21.2384921 C52.2784307,13.8474711 57.5448779,8.40412368 63.5102936,7.29789211 C70.6934486,5.96579737 76.2498765,11.0192026 77.3681811,16.8739921 Z M87.3889511,0.121786866 L87.687358,0.169782105 L87.6871331,5.29719263 C85.4259192,5.58519564 84.4853873,5.35785856 84.3250123,7.80290046 L84.3128724,8.02565579 L87.6869081,8.09083474 L87.687583,13.2678084 L84.3187215,13.2899874 L84.3126475,30.4268453 L78.8079586,30.3759242 C78.8079586,23.8329084 78.8108861,17.2896663 78.8079586,10.7466505 C78.8055208,5.04349263 80.3050098,-0.932000493 87.3889511,0.121786866 Z M92.079746,0.0996468421 L97.5869064,0.127936316 L97.5857816,8.03450474 L100.850034,8.03382579 L100.848684,13.2927258 L97.5909558,13.2870679 L97.5866815,30.3895258 L92.0835704,30.3759468 L92.0088818,13.3144521 L89.4381986,13.1460732 L89.4334743,8.07524158 L92.0813207,8.03676789 L92.079746,2.14667316 L92.079746,0.0996468421 Z M5.52828477,26.9569263 C1.94840549,28.3890526 0.394342387,23.0538842 3.55308587,21.9662105 C7.04860302,20.7628895 8.48230947,25.7751053 5.52828477,26.9569263 Z M64.6292055,12.2707742 C55.743285,13.8479689 58.3096938,27.0845005 66.5200422,25.8241479 C75.1234058,24.5035953 72.8802727,10.8062847 64.6292055,12.2707742 Z M4.0429487,20.2403263 C0.31009273,21.7598105 -1.64845871,16.1743368 1.76832044,14.7331579 C5.6901476,13.0790158 7.42958244,18.8620632 4.0429487,20.2403263 Z M7.29003621,13.3161947 C3.01996214,14.7388158 0.998195336,8.40944211 5.22935034,7.07146316 C9.54981674,5.70542105 11.1598963,12.0268737 7.29003621,13.3161947 Z M24.6835298,11.3580879 C19.3563418,12.6754721 17.4124132,4.73337211 22.7468,3.42345632 C27.9237108,2.15224053 29.6966656,10.11833 24.6835298,11.3580879 Z M14.5880137,9.56811105 C9.71300686,10.3228742 8.4545487,3.14029 13.5680192,2.32193211 C17.9867956,1.61469526 19.3442387,8.83145316 14.5880137,9.56811105 Z M114.566936,6.04441947 C110.803934,7.66529316 108.810288,2.14499842 112.229542,0.707666842 C116.016615,-0.884238421 117.773147,4.66344053 114.566936,6.04441947 Z" id="Combined-Shape" fill="#2C4FA1"></path>
        <path d="M17.2294036,42.5868379 C12.5253706,44.1719537 10.1657053,37.1421326 14.9433021,35.6640642 C19.5798453,34.2292221 21.5309728,41.1375116 17.2294036,42.5868379 Z M7.28110508,41.5876989 C2.05560165,43.0537726 -0.313287243,35.3859674 4.99207901,33.7662253 C10.2049844,32.1747726 12.1509377,40.2212042 7.28110508,41.5876989 Z M24.6178848,37.9946642 C20.3687325,39.4263379 18.2371824,33.0763695 22.5526996,31.7411063 C26.7411111,30.4449958 28.5032675,36.6854274 24.6178848,37.9946642 Z M163.804852,20.9868155 L163.75562,21.4866247 L146.343949,21.4925089 C146.458007,24.3805247 150.163417,26.2999089 153.592344,25.8321142 C156.187548,25.4781563 156.593162,24.0152511 157.551291,23.7196826 C157.794543,23.6447074 158.722719,23.6199051 159.775163,23.6177336 L160.309145,23.6184063 L160.848265,23.6220858 C161.921259,23.6319414 162.931635,23.6552473 163.318736,23.6644616 C161.935197,28.8674616 155.023351,32.6012195 148.225787,30.2457247 C143.235598,28.5164458 138.603329,22.8958932 140.7639,15.6535616 C144.660317,2.59353368 165.206512,4.63757929 163.804852,20.9868155 Z M27.5195374,30.5006468 C23.8435978,31.4108889 22.0332988,25.8156837 26.164569,24.7259732 C29.956141,23.7256574 30.9405909,29.6533205 27.5195374,30.5006468 Z M108.048599,0.0542705263 L108.047249,30.4333179 L102.541889,30.4333179 L102.544588,28.1728758 L102.543463,0.0578915789 L108.048599,0.0542705263 Z M123.62437,9.54801421 C125.056277,9.02794053 126.135662,6.63963 131.351267,7.17871421 C138.91505,7.96042266 139.10639,15.7667222 138.859991,23.900329 L138.830013,24.8398936 C138.816176,25.2577847 138.80189,25.6758592 138.788089,26.0932138 L138.767869,26.7185929 C138.728625,27.9678197 138.697958,29.2065032 138.701122,30.4102563 L138.701122,30.4102563 L133.194861,30.4310774 C133.189687,26.5877826 133.227706,22.7315879 133.195086,18.8901037 C133.164041,15.2341984 132.635596,11.8720511 128.506576,12.1759932 C124.816013,12.4477984 124.102872,15.3616142 124.021884,19.1250195 C123.941122,22.8646616 124.023234,26.6839668 124.015585,30.4328879 L124.015585,30.4328879 L118.57029,30.4328879 L118.625857,7.63768263 L123.585451,7.63474053 Z M110.5706,7.63881421 L115.976751,7.71870368 L115.979675,30.4150089 L110.525832,30.3781195 L110.5706,7.63881421 Z M26.3725498,23.0186468 C23.2232549,24.5231942 20.7902508,19.7191889 24.1681108,18.20061 C27.4161657,16.7404205 29.4579545,21.5448784 26.3725498,23.0186468 Z M20.998659,18.7466647 C19.4272735,19.1680647 18.3330403,18.2250068 18.0088647,17.0631016 C17.534862,15.3643753 18.5184121,14.5333437 19.7118551,14.1286911 C22.8249306,13.0733805 23.7938579,17.9968805 20.998659,18.7466647 Z M15.3974628,18.0875653 C12.6128373,19.0471442 11.099493,15.2396074 13.7360911,14.0752126 C16.5931556,12.8137284 17.8711857,17.2348074 15.3974628,18.0875653 Z M152.311952,12.1522641 C148.851304,12.1574805 146.94112,13.8516805 146.094574,16.5525332 L158.473088,16.6401174 C157.9019,13.8098121 155.53841,12.1472963 152.311952,12.1522641 Z" id="Combined-Shape" fill="#5F98D0"></path>
      </g>
    </g>
  </g>
</svg>
